<mxfile host="www.draw.io" modified="2019-10-15T08:24:09.647Z" agent="Mozilla/5.0 (Windows NT 6.3; Win64; x64) AppleWebKit/537.36 (KHTML, like Gecko) Chrome/76.0.3809.100 Safari/537.36" etag="lTwToQCP6fnx8ShMU8q8" version="12.1.1" type="github" pages="1">
  <diagram id="tmXUNguIjeUi3-2M3EYm" name="Page-1">
    <mxGraphModel dx="1011" dy="452" grid="1" gridSize="10" guides="1" tooltips="1" connect="1" arrows="1" fold="1" page="1" pageScale="1" pageWidth="827" pageHeight="1169" math="0" shadow="0">
      <root>
        <mxCell id="0"/>
        <mxCell id="1" parent="0"/>
        <mxCell id="o_JJ_BRSxDDRQvjzPQoS-55" value="" style="rounded=1;whiteSpace=wrap;html=1;fillColor=#FFFFFF;dashed=1;" parent="1" vertex="1">
          <mxGeometry x="209" y="990" width="230" height="120" as="geometry"/>
        </mxCell>
        <mxCell id="o_JJ_BRSxDDRQvjzPQoS-21" value="" style="group" parent="1" vertex="1" connectable="0" treatAsSingle="0">
          <mxGeometry x="229" y="1001" width="40" height="109" as="geometry"/>
        </mxCell>
        <mxCell id="o_JJ_BRSxDDRQvjzPQoS-10" value="" style="group" parent="o_JJ_BRSxDDRQvjzPQoS-21" vertex="1" connectable="0" treatAsSingle="0">
          <mxGeometry x="10" width="20" height="80" as="geometry"/>
        </mxCell>
        <mxCell id="o_JJ_BRSxDDRQvjzPQoS-2" value="" style="rounded=1;whiteSpace=wrap;html=1;arcSize=50;" parent="o_JJ_BRSxDDRQvjzPQoS-10" vertex="1">
          <mxGeometry width="20" height="80" as="geometry"/>
        </mxCell>
        <mxCell id="o_JJ_BRSxDDRQvjzPQoS-5" value="" style="ellipse;whiteSpace=wrap;html=1;aspect=fixed;fillColor=#4D4D4D;" parent="o_JJ_BRSxDDRQvjzPQoS-10" vertex="1">
          <mxGeometry y="30" width="20" height="20" as="geometry"/>
        </mxCell>
        <mxCell id="o_JJ_BRSxDDRQvjzPQoS-11" value="" style="group" parent="o_JJ_BRSxDDRQvjzPQoS-10" vertex="1" connectable="0" treatAsSingle="0">
          <mxGeometry y="7" width="20" height="66" as="geometry"/>
        </mxCell>
        <mxCell id="o_JJ_BRSxDDRQvjzPQoS-6" value="" style="ellipse;whiteSpace=wrap;html=1;aspect=fixed;fillColor=#4D4D4D;" parent="o_JJ_BRSxDDRQvjzPQoS-11" vertex="1">
          <mxGeometry y="46" width="20" height="20" as="geometry"/>
        </mxCell>
        <mxCell id="o_JJ_BRSxDDRQvjzPQoS-1" value="" style="ellipse;whiteSpace=wrap;html=1;aspect=fixed;fillColor=#4D4D4D;" parent="o_JJ_BRSxDDRQvjzPQoS-11" vertex="1">
          <mxGeometry width="20" height="20" as="geometry"/>
        </mxCell>
        <mxCell id="o_JJ_BRSxDDRQvjzPQoS-16" value="" style="group" parent="o_JJ_BRSxDDRQvjzPQoS-21" vertex="1" connectable="0" treatAsSingle="0">
          <mxGeometry y="89" width="40" height="20" as="geometry"/>
        </mxCell>
        <mxCell id="o_JJ_BRSxDDRQvjzPQoS-7" value="上文" style="text;html=1;strokeColor=none;fillColor=none;align=center;verticalAlign=middle;whiteSpace=wrap;rounded=0;" parent="o_JJ_BRSxDDRQvjzPQoS-16" vertex="1">
          <mxGeometry width="40" height="20" as="geometry"/>
        </mxCell>
        <mxCell id="o_JJ_BRSxDDRQvjzPQoS-25" value="" style="group" parent="1" vertex="1" connectable="0" treatAsSingle="0">
          <mxGeometry x="289" y="1001" width="40" height="109" as="geometry"/>
        </mxCell>
        <mxCell id="o_JJ_BRSxDDRQvjzPQoS-26" value="" style="group" parent="o_JJ_BRSxDDRQvjzPQoS-25" vertex="1" connectable="0" treatAsSingle="0">
          <mxGeometry x="10" width="20" height="80" as="geometry"/>
        </mxCell>
        <mxCell id="o_JJ_BRSxDDRQvjzPQoS-27" value="" style="rounded=1;whiteSpace=wrap;html=1;arcSize=50;" parent="o_JJ_BRSxDDRQvjzPQoS-26" vertex="1">
          <mxGeometry width="20" height="80" as="geometry"/>
        </mxCell>
        <mxCell id="o_JJ_BRSxDDRQvjzPQoS-28" value="" style="ellipse;whiteSpace=wrap;html=1;aspect=fixed;fillColor=#4D4D4D;" parent="o_JJ_BRSxDDRQvjzPQoS-26" vertex="1">
          <mxGeometry y="30" width="20" height="20" as="geometry"/>
        </mxCell>
        <mxCell id="o_JJ_BRSxDDRQvjzPQoS-29" value="" style="group" parent="o_JJ_BRSxDDRQvjzPQoS-26" vertex="1" connectable="0" treatAsSingle="0">
          <mxGeometry y="7" width="20" height="66" as="geometry"/>
        </mxCell>
        <mxCell id="o_JJ_BRSxDDRQvjzPQoS-30" value="" style="ellipse;whiteSpace=wrap;html=1;aspect=fixed;fillColor=#4D4D4D;" parent="o_JJ_BRSxDDRQvjzPQoS-29" vertex="1">
          <mxGeometry y="46" width="20" height="20" as="geometry"/>
        </mxCell>
        <mxCell id="o_JJ_BRSxDDRQvjzPQoS-31" value="" style="ellipse;whiteSpace=wrap;html=1;aspect=fixed;fillColor=#4D4D4D;" parent="o_JJ_BRSxDDRQvjzPQoS-29" vertex="1">
          <mxGeometry width="20" height="20" as="geometry"/>
        </mxCell>
        <mxCell id="o_JJ_BRSxDDRQvjzPQoS-32" value="" style="group" parent="o_JJ_BRSxDDRQvjzPQoS-25" vertex="1" connectable="0" treatAsSingle="0">
          <mxGeometry y="89" width="40" height="20" as="geometry"/>
        </mxCell>
        <mxCell id="o_JJ_BRSxDDRQvjzPQoS-33" value="方面词" style="text;html=1;strokeColor=none;fillColor=none;align=center;verticalAlign=middle;whiteSpace=wrap;rounded=0;" parent="o_JJ_BRSxDDRQvjzPQoS-32" vertex="1">
          <mxGeometry width="40" height="20" as="geometry"/>
        </mxCell>
        <mxCell id="o_JJ_BRSxDDRQvjzPQoS-46" value="" style="group" parent="1" vertex="1" connectable="0" treatAsSingle="0">
          <mxGeometry x="349" y="999.5" width="40" height="109" as="geometry"/>
        </mxCell>
        <mxCell id="o_JJ_BRSxDDRQvjzPQoS-47" value="" style="group" parent="o_JJ_BRSxDDRQvjzPQoS-46" vertex="1" connectable="0" treatAsSingle="0">
          <mxGeometry x="10" width="20" height="80" as="geometry"/>
        </mxCell>
        <mxCell id="o_JJ_BRSxDDRQvjzPQoS-48" value="" style="rounded=1;whiteSpace=wrap;html=1;arcSize=50;" parent="o_JJ_BRSxDDRQvjzPQoS-47" vertex="1">
          <mxGeometry width="20" height="80" as="geometry"/>
        </mxCell>
        <mxCell id="o_JJ_BRSxDDRQvjzPQoS-49" value="" style="ellipse;whiteSpace=wrap;html=1;aspect=fixed;fillColor=#4D4D4D;" parent="o_JJ_BRSxDDRQvjzPQoS-47" vertex="1">
          <mxGeometry y="30" width="20" height="20" as="geometry"/>
        </mxCell>
        <mxCell id="o_JJ_BRSxDDRQvjzPQoS-50" value="" style="group" parent="o_JJ_BRSxDDRQvjzPQoS-47" vertex="1" connectable="0" treatAsSingle="0">
          <mxGeometry y="7" width="20" height="66" as="geometry"/>
        </mxCell>
        <mxCell id="o_JJ_BRSxDDRQvjzPQoS-51" value="" style="ellipse;whiteSpace=wrap;html=1;aspect=fixed;fillColor=#4D4D4D;" parent="o_JJ_BRSxDDRQvjzPQoS-50" vertex="1">
          <mxGeometry y="46" width="20" height="20" as="geometry"/>
        </mxCell>
        <mxCell id="o_JJ_BRSxDDRQvjzPQoS-52" value="" style="ellipse;whiteSpace=wrap;html=1;aspect=fixed;fillColor=#4D4D4D;" parent="o_JJ_BRSxDDRQvjzPQoS-50" vertex="1">
          <mxGeometry width="20" height="20" as="geometry"/>
        </mxCell>
        <mxCell id="o_JJ_BRSxDDRQvjzPQoS-53" value="" style="group" parent="o_JJ_BRSxDDRQvjzPQoS-46" vertex="1" connectable="0" treatAsSingle="0">
          <mxGeometry y="89" width="40" height="20" as="geometry"/>
        </mxCell>
        <mxCell id="o_JJ_BRSxDDRQvjzPQoS-54" value="下文" style="text;html=1;strokeColor=none;fillColor=none;align=center;verticalAlign=middle;whiteSpace=wrap;rounded=0;" parent="o_JJ_BRSxDDRQvjzPQoS-53" vertex="1">
          <mxGeometry width="40" height="20" as="geometry"/>
        </mxCell>
        <mxCell id="o_JJ_BRSxDDRQvjzPQoS-250" style="edgeStyle=elbowEdgeStyle;rounded=0;orthogonalLoop=1;jettySize=auto;html=1;exitX=0;exitY=0.5;exitDx=0;exitDy=0;entryX=0;entryY=0.5;entryDx=0;entryDy=0;" parent="1" source="o_JJ_BRSxDDRQvjzPQoS-56" target="o_JJ_BRSxDDRQvjzPQoS-222" edge="1">
          <mxGeometry relative="1" as="geometry">
            <mxPoint x="49" y="500" as="targetPoint"/>
            <Array as="points">
              <mxPoint x="169" y="800"/>
            </Array>
          </mxGeometry>
        </mxCell>
        <mxCell id="ub1XtkeqpHlctDYd5CSZ-99" style="edgeStyle=orthogonalEdgeStyle;rounded=0;orthogonalLoop=1;jettySize=auto;html=1;exitX=1;exitY=0.5;exitDx=0;exitDy=0;entryX=0.5;entryY=1;entryDx=0;entryDy=0;" parent="1" source="o_JJ_BRSxDDRQvjzPQoS-56" target="o_JJ_BRSxDDRQvjzPQoS-98" edge="1">
          <mxGeometry relative="1" as="geometry"/>
        </mxCell>
        <mxCell id="o_JJ_BRSxDDRQvjzPQoS-56" value="" style="rounded=1;whiteSpace=wrap;html=1;fillColor=#FFFFFF;dashed=1;" parent="1" vertex="1">
          <mxGeometry x="209" y="890" width="230" height="80" as="geometry"/>
        </mxCell>
        <mxCell id="o_JJ_BRSxDDRQvjzPQoS-61" value="" style="group" parent="1" vertex="1" connectable="0" treatAsSingle="0">
          <mxGeometry x="229" y="901.5" width="40" height="58.5" as="geometry"/>
        </mxCell>
        <mxCell id="o_JJ_BRSxDDRQvjzPQoS-59" value="GRU" style="rounded=0;whiteSpace=wrap;html=1;fillColor=#FFFFFF;" parent="o_JJ_BRSxDDRQvjzPQoS-61" vertex="1">
          <mxGeometry width="40" height="30" as="geometry"/>
        </mxCell>
        <mxCell id="o_JJ_BRSxDDRQvjzPQoS-60" value="GRU" style="rounded=0;whiteSpace=wrap;html=1;fillColor=#FFFFFF;" parent="o_JJ_BRSxDDRQvjzPQoS-61" vertex="1">
          <mxGeometry y="28.5" width="40" height="30" as="geometry"/>
        </mxCell>
        <mxCell id="o_JJ_BRSxDDRQvjzPQoS-64" value="" style="group" parent="1" vertex="1" connectable="0" treatAsSingle="0">
          <mxGeometry x="289" y="901" width="40" height="58.5" as="geometry"/>
        </mxCell>
        <mxCell id="o_JJ_BRSxDDRQvjzPQoS-65" value="GRU" style="rounded=0;whiteSpace=wrap;html=1;fillColor=#FFFFFF;" parent="o_JJ_BRSxDDRQvjzPQoS-64" vertex="1">
          <mxGeometry width="40" height="30" as="geometry"/>
        </mxCell>
        <mxCell id="o_JJ_BRSxDDRQvjzPQoS-66" value="GRU" style="rounded=0;whiteSpace=wrap;html=1;fillColor=#FFFFFF;" parent="o_JJ_BRSxDDRQvjzPQoS-64" vertex="1">
          <mxGeometry y="28.5" width="40" height="30" as="geometry"/>
        </mxCell>
        <mxCell id="o_JJ_BRSxDDRQvjzPQoS-67" value="" style="group" parent="1" vertex="1" connectable="0" treatAsSingle="0">
          <mxGeometry x="349" y="901" width="40" height="58.5" as="geometry"/>
        </mxCell>
        <mxCell id="o_JJ_BRSxDDRQvjzPQoS-69" value="GRU" style="rounded=0;whiteSpace=wrap;html=1;fillColor=#FFFFFF;" parent="o_JJ_BRSxDDRQvjzPQoS-67" vertex="1">
          <mxGeometry y="28.5" width="40" height="30" as="geometry"/>
        </mxCell>
        <mxCell id="ub1XtkeqpHlctDYd5CSZ-6" value="" style="group" parent="o_JJ_BRSxDDRQvjzPQoS-67" vertex="1" connectable="0" treatAsSingle="0">
          <mxGeometry width="40" height="30" as="geometry"/>
        </mxCell>
        <mxCell id="o_JJ_BRSxDDRQvjzPQoS-68" value="GRU" style="rounded=0;whiteSpace=wrap;html=1;fillColor=#FFFFFF;" parent="ub1XtkeqpHlctDYd5CSZ-6" vertex="1">
          <mxGeometry width="40" height="30" as="geometry"/>
        </mxCell>
        <mxCell id="o_JJ_BRSxDDRQvjzPQoS-73" style="edgeStyle=orthogonalEdgeStyle;rounded=0;orthogonalLoop=1;jettySize=auto;html=1;exitX=1;exitY=0.5;exitDx=0;exitDy=0;entryX=0;entryY=0.5;entryDx=0;entryDy=0;" parent="1" source="o_JJ_BRSxDDRQvjzPQoS-66" target="o_JJ_BRSxDDRQvjzPQoS-69" edge="1">
          <mxGeometry relative="1" as="geometry"/>
        </mxCell>
        <mxCell id="o_JJ_BRSxDDRQvjzPQoS-82" style="edgeStyle=orthogonalEdgeStyle;rounded=0;orthogonalLoop=1;jettySize=auto;html=1;exitX=0;exitY=0.5;exitDx=0;exitDy=0;entryX=1;entryY=0.5;entryDx=0;entryDy=0;" parent="1" edge="1">
          <mxGeometry relative="1" as="geometry">
            <mxPoint x="289" y="915.9767441860465" as="sourcePoint"/>
            <mxPoint x="269" y="915.9767441860465" as="targetPoint"/>
          </mxGeometry>
        </mxCell>
        <mxCell id="o_JJ_BRSxDDRQvjzPQoS-85" style="edgeStyle=orthogonalEdgeStyle;rounded=0;orthogonalLoop=1;jettySize=auto;html=1;exitX=1;exitY=0.5;exitDx=0;exitDy=0;entryX=0;entryY=0.5;entryDx=0;entryDy=0;" parent="1" edge="1">
          <mxGeometry relative="1" as="geometry">
            <mxPoint x="268.8888888888889" y="944.4444444444443" as="sourcePoint"/>
            <mxPoint x="288.8888888888889" y="944.4444444444443" as="targetPoint"/>
          </mxGeometry>
        </mxCell>
        <mxCell id="o_JJ_BRSxDDRQvjzPQoS-87" style="edgeStyle=orthogonalEdgeStyle;rounded=0;orthogonalLoop=1;jettySize=auto;html=1;exitX=0.5;exitY=0;exitDx=0;exitDy=0;entryX=0.5;entryY=1;entryDx=0;entryDy=0;" parent="1" source="o_JJ_BRSxDDRQvjzPQoS-2" target="o_JJ_BRSxDDRQvjzPQoS-60" edge="1">
          <mxGeometry relative="1" as="geometry"/>
        </mxCell>
        <mxCell id="o_JJ_BRSxDDRQvjzPQoS-88" style="edgeStyle=orthogonalEdgeStyle;rounded=0;orthogonalLoop=1;jettySize=auto;html=1;exitX=0.5;exitY=0;exitDx=0;exitDy=0;entryX=0.5;entryY=1;entryDx=0;entryDy=0;" parent="1" source="o_JJ_BRSxDDRQvjzPQoS-27" target="o_JJ_BRSxDDRQvjzPQoS-66" edge="1">
          <mxGeometry relative="1" as="geometry"/>
        </mxCell>
        <mxCell id="o_JJ_BRSxDDRQvjzPQoS-89" style="edgeStyle=orthogonalEdgeStyle;rounded=0;orthogonalLoop=1;jettySize=auto;html=1;exitX=0.5;exitY=0;exitDx=0;exitDy=0;entryX=0.5;entryY=1;entryDx=0;entryDy=0;" parent="1" source="o_JJ_BRSxDDRQvjzPQoS-48" target="o_JJ_BRSxDDRQvjzPQoS-69" edge="1">
          <mxGeometry relative="1" as="geometry"/>
        </mxCell>
        <mxCell id="o_JJ_BRSxDDRQvjzPQoS-218" value="词语表示层" style="text;html=1;strokeColor=none;fillColor=none;align=center;verticalAlign=middle;whiteSpace=wrap;rounded=0;" parent="1" vertex="1">
          <mxGeometry x="409" y="1015.5" width="10" height="80" as="geometry"/>
        </mxCell>
        <mxCell id="o_JJ_BRSxDDRQvjzPQoS-219" value="语义学习层" style="text;html=1;strokeColor=none;fillColor=none;align=center;verticalAlign=middle;whiteSpace=wrap;rounded=0;" parent="1" vertex="1">
          <mxGeometry x="409" y="892" width="10" height="80" as="geometry"/>
        </mxCell>
        <mxCell id="ub1XtkeqpHlctDYd5CSZ-8" value="" style="group" parent="1" vertex="1" connectable="0" treatAsSingle="0">
          <mxGeometry x="209" y="750" width="230" height="117" as="geometry"/>
        </mxCell>
        <mxCell id="o_JJ_BRSxDDRQvjzPQoS-91" value="" style="rounded=1;whiteSpace=wrap;html=1;fillColor=#FFFFFF;dashed=1;" parent="ub1XtkeqpHlctDYd5CSZ-8" vertex="1">
          <mxGeometry width="230.00000000000003" height="117" as="geometry"/>
        </mxCell>
        <mxCell id="o_JJ_BRSxDDRQvjzPQoS-92" value="" style="rounded=0;whiteSpace=wrap;html=1;fillColor=#333333;" parent="ub1XtkeqpHlctDYd5CSZ-8" vertex="1">
          <mxGeometry x="88.65000000000002" y="23" width="23.000000000000004" height="60" as="geometry"/>
        </mxCell>
        <mxCell id="o_JJ_BRSxDDRQvjzPQoS-93" value="" style="rounded=0;whiteSpace=wrap;html=1;fillColor=#808080;" parent="ub1XtkeqpHlctDYd5CSZ-8" vertex="1">
          <mxGeometry x="28.150000000000006" y="23" width="23.000000000000004" height="60" as="geometry"/>
        </mxCell>
        <mxCell id="o_JJ_BRSxDDRQvjzPQoS-94" value="" style="rounded=0;whiteSpace=wrap;html=1;fillColor=#808080;" parent="ub1XtkeqpHlctDYd5CSZ-8" vertex="1">
          <mxGeometry x="148.15000000000003" y="23" width="23.000000000000004" height="60" as="geometry"/>
        </mxCell>
        <mxCell id="o_JJ_BRSxDDRQvjzPQoS-220" value="位置记忆网络层" style="text;html=1;strokeColor=none;fillColor=none;align=center;verticalAlign=middle;whiteSpace=wrap;rounded=0;" parent="ub1XtkeqpHlctDYd5CSZ-8" vertex="1">
          <mxGeometry x="200.15" y="10" width="11.500000000000002" height="80" as="geometry"/>
        </mxCell>
        <mxCell id="ub1XtkeqpHlctDYd5CSZ-20" style="edgeStyle=orthogonalEdgeStyle;rounded=0;orthogonalLoop=1;jettySize=auto;html=1;exitX=0.5;exitY=0;exitDx=0;exitDy=0;entryX=0.5;entryY=1;entryDx=0;entryDy=0;" parent="1" source="o_JJ_BRSxDDRQvjzPQoS-222" target="o_JJ_BRSxDDRQvjzPQoS-247" edge="1">
          <mxGeometry relative="1" as="geometry"/>
        </mxCell>
        <mxCell id="o_JJ_BRSxDDRQvjzPQoS-222" value="" style="rounded=1;whiteSpace=wrap;html=1;fillColor=#FFFFFF;dashed=1;" parent="1" vertex="1">
          <mxGeometry x="209" y="630" width="230" height="90" as="geometry"/>
        </mxCell>
        <mxCell id="o_JJ_BRSxDDRQvjzPQoS-235" value="位置注意层" style="text;html=1;strokeColor=none;fillColor=none;align=center;verticalAlign=middle;whiteSpace=wrap;rounded=0;" parent="1" vertex="1">
          <mxGeometry x="409" y="630" width="10" height="80" as="geometry"/>
        </mxCell>
        <mxCell id="o_JJ_BRSxDDRQvjzPQoS-236" value="" style="group" parent="1" vertex="1" connectable="0" treatAsSingle="0">
          <mxGeometry x="248" y="643" width="144" height="57" as="geometry"/>
        </mxCell>
        <mxCell id="o_JJ_BRSxDDRQvjzPQoS-223" value="" style="endArrow=none;html=1;" parent="o_JJ_BRSxDDRQvjzPQoS-236" edge="1">
          <mxGeometry width="50" height="50" relative="1" as="geometry">
            <mxPoint y="57" as="sourcePoint"/>
            <mxPoint x="144" y="57" as="targetPoint"/>
          </mxGeometry>
        </mxCell>
        <mxCell id="o_JJ_BRSxDDRQvjzPQoS-224" value="" style="rounded=0;whiteSpace=wrap;html=1;fillColor=#B3B3B3;" parent="o_JJ_BRSxDDRQvjzPQoS-236" vertex="1">
          <mxGeometry x="66.07058823529412" width="11.294117647058824" height="57" as="geometry"/>
        </mxCell>
        <mxCell id="o_JJ_BRSxDDRQvjzPQoS-227" value="" style="rounded=0;whiteSpace=wrap;html=1;fillColor=#B3B3B3;" parent="o_JJ_BRSxDDRQvjzPQoS-236" vertex="1">
          <mxGeometry x="30.49411764705883" y="31.666666666666668" width="11.294117647058824" height="25.333333333333332" as="geometry"/>
        </mxCell>
        <mxCell id="o_JJ_BRSxDDRQvjzPQoS-228" value="" style="rounded=0;whiteSpace=wrap;html=1;fillColor=#B3B3B3;" parent="o_JJ_BRSxDDRQvjzPQoS-236" vertex="1">
          <mxGeometry x="104.47058823529413" y="19" width="11.294117647058824" height="38" as="geometry"/>
        </mxCell>
        <mxCell id="o_JJ_BRSxDDRQvjzPQoS-237" style="edgeStyle=none;rounded=0;orthogonalLoop=1;jettySize=auto;html=1;exitX=1;exitY=0.5;exitDx=0;exitDy=0;" parent="o_JJ_BRSxDDRQvjzPQoS-236" source="o_JJ_BRSxDDRQvjzPQoS-224" target="o_JJ_BRSxDDRQvjzPQoS-224" edge="1">
          <mxGeometry relative="1" as="geometry"/>
        </mxCell>
        <mxCell id="ub1XtkeqpHlctDYd5CSZ-15" value="" style="group" parent="1" vertex="1" connectable="0" treatAsSingle="0">
          <mxGeometry x="269" y="520" width="100" height="80" as="geometry"/>
        </mxCell>
        <mxCell id="o_JJ_BRSxDDRQvjzPQoS-247" value="" style="rounded=1;whiteSpace=wrap;html=1;fillColor=#FFFFFF;dashed=1;" parent="ub1XtkeqpHlctDYd5CSZ-15" vertex="1">
          <mxGeometry x="4" width="100" height="80" as="geometry"/>
        </mxCell>
        <mxCell id="o_JJ_BRSxDDRQvjzPQoS-177" value="" style="group" parent="ub1XtkeqpHlctDYd5CSZ-15" vertex="1" connectable="0" treatAsSingle="0">
          <mxGeometry x="10" y="41" width="80" height="25" as="geometry"/>
        </mxCell>
        <mxCell id="o_JJ_BRSxDDRQvjzPQoS-153" value="" style="group" parent="o_JJ_BRSxDDRQvjzPQoS-177" vertex="1" connectable="0" treatAsSingle="0">
          <mxGeometry width="80" height="25" as="geometry"/>
        </mxCell>
        <mxCell id="o_JJ_BRSxDDRQvjzPQoS-143" value="" style="rounded=1;whiteSpace=wrap;html=1;arcSize=50;" parent="o_JJ_BRSxDDRQvjzPQoS-153" vertex="1">
          <mxGeometry width="80" height="25" as="geometry"/>
        </mxCell>
        <mxCell id="o_JJ_BRSxDDRQvjzPQoS-147" value="" style="ellipse;whiteSpace=wrap;html=1;aspect=fixed;fillColor=#4D4D4D;" parent="o_JJ_BRSxDDRQvjzPQoS-153" vertex="1">
          <mxGeometry x="7" y="2.5" width="20" height="20" as="geometry"/>
        </mxCell>
        <mxCell id="o_JJ_BRSxDDRQvjzPQoS-151" value="" style="ellipse;whiteSpace=wrap;html=1;aspect=fixed;fillColor=#4D4D4D;" parent="o_JJ_BRSxDDRQvjzPQoS-153" vertex="1">
          <mxGeometry x="31" y="2.5" width="20" height="20" as="geometry"/>
        </mxCell>
        <mxCell id="o_JJ_BRSxDDRQvjzPQoS-152" value="" style="ellipse;whiteSpace=wrap;html=1;aspect=fixed;fillColor=#4D4D4D;" parent="o_JJ_BRSxDDRQvjzPQoS-153" vertex="1">
          <mxGeometry x="55" y="2.5" width="20" height="20" as="geometry"/>
        </mxCell>
        <mxCell id="o_JJ_BRSxDDRQvjzPQoS-217" value="&lt;font style=&quot;font-size: 12px&quot;&gt;情感分&lt;span style=&quot;line-height: 105% ; letter-spacing: 0.2pt&quot;&gt;类&lt;/span&gt;&lt;/font&gt;层" style="text;html=1;strokeColor=none;fillColor=none;align=center;verticalAlign=middle;whiteSpace=wrap;rounded=0;" parent="ub1XtkeqpHlctDYd5CSZ-15" vertex="1">
          <mxGeometry x="16" y="10" width="70" height="20" as="geometry"/>
        </mxCell>
        <mxCell id="o_JJ_BRSxDDRQvjzPQoS-249" style="edgeStyle=none;rounded=0;orthogonalLoop=1;jettySize=auto;html=1;exitX=0.5;exitY=0;exitDx=0;exitDy=0;" parent="ub1XtkeqpHlctDYd5CSZ-15" source="o_JJ_BRSxDDRQvjzPQoS-247" target="o_JJ_BRSxDDRQvjzPQoS-247" edge="1">
          <mxGeometry relative="1" as="geometry"/>
        </mxCell>
        <mxCell id="ub1XtkeqpHlctDYd5CSZ-16" style="edgeStyle=orthogonalEdgeStyle;rounded=0;orthogonalLoop=1;jettySize=auto;html=1;exitX=0.5;exitY=0;exitDx=0;exitDy=0;entryX=0.5;entryY=1;entryDx=0;entryDy=0;" parent="1" source="o_JJ_BRSxDDRQvjzPQoS-59" target="o_JJ_BRSxDDRQvjzPQoS-93" edge="1">
          <mxGeometry relative="1" as="geometry"/>
        </mxCell>
        <mxCell id="ub1XtkeqpHlctDYd5CSZ-17" style="edgeStyle=orthogonalEdgeStyle;rounded=0;orthogonalLoop=1;jettySize=auto;html=1;exitX=0.5;exitY=0;exitDx=0;exitDy=0;entryX=0.5;entryY=1;entryDx=0;entryDy=0;" parent="1" source="o_JJ_BRSxDDRQvjzPQoS-65" target="o_JJ_BRSxDDRQvjzPQoS-92" edge="1">
          <mxGeometry relative="1" as="geometry"/>
        </mxCell>
        <mxCell id="ub1XtkeqpHlctDYd5CSZ-18" style="edgeStyle=orthogonalEdgeStyle;rounded=0;orthogonalLoop=1;jettySize=auto;html=1;exitX=0.5;exitY=0;exitDx=0;exitDy=0;entryX=0.5;entryY=1;entryDx=0;entryDy=0;" parent="1" source="o_JJ_BRSxDDRQvjzPQoS-68" target="o_JJ_BRSxDDRQvjzPQoS-94" edge="1">
          <mxGeometry relative="1" as="geometry">
            <Array as="points">
              <mxPoint x="369" y="867"/>
            </Array>
          </mxGeometry>
        </mxCell>
        <mxCell id="ub1XtkeqpHlctDYd5CSZ-19" style="edgeStyle=orthogonalEdgeStyle;rounded=0;orthogonalLoop=1;jettySize=auto;html=1;exitX=0.5;exitY=0;exitDx=0;exitDy=0;entryX=0.5;entryY=1;entryDx=0;entryDy=0;" parent="1" source="o_JJ_BRSxDDRQvjzPQoS-91" target="o_JJ_BRSxDDRQvjzPQoS-222" edge="1">
          <mxGeometry relative="1" as="geometry"/>
        </mxCell>
        <mxCell id="o_JJ_BRSxDDRQvjzPQoS-74" style="edgeStyle=orthogonalEdgeStyle;rounded=0;orthogonalLoop=1;jettySize=auto;html=1;exitX=0;exitY=0.5;exitDx=0;exitDy=0;entryX=1;entryY=0.5;entryDx=0;entryDy=0;" parent="1" source="o_JJ_BRSxDDRQvjzPQoS-68" target="o_JJ_BRSxDDRQvjzPQoS-65" edge="1">
          <mxGeometry relative="1" as="geometry"/>
        </mxCell>
        <mxCell id="ub1XtkeqpHlctDYd5CSZ-100" style="edgeStyle=orthogonalEdgeStyle;rounded=0;orthogonalLoop=1;jettySize=auto;html=1;exitX=0.5;exitY=0;exitDx=0;exitDy=0;entryX=1;entryY=0.5;entryDx=0;entryDy=0;" parent="1" source="o_JJ_BRSxDDRQvjzPQoS-98" target="o_JJ_BRSxDDRQvjzPQoS-222" edge="1">
          <mxGeometry relative="1" as="geometry"/>
        </mxCell>
        <mxCell id="o_JJ_BRSxDDRQvjzPQoS-98" value="" style="rounded=1;whiteSpace=wrap;html=1;fillColor=#FFFFFF;dashed=1;" parent="1" vertex="1">
          <mxGeometry x="477" y="710" width="310" height="200" as="geometry"/>
        </mxCell>
        <mxCell id="o_JJ_BRSxDDRQvjzPQoS-216" style="edgeStyle=none;rounded=0;orthogonalLoop=1;jettySize=auto;html=1;exitX=0.5;exitY=0;exitDx=0;exitDy=0;" parent="1" source="o_JJ_BRSxDDRQvjzPQoS-98" target="o_JJ_BRSxDDRQvjzPQoS-98" edge="1">
          <mxGeometry relative="1" as="geometry"/>
        </mxCell>
        <mxCell id="o_JJ_BRSxDDRQvjzPQoS-221" value="图卷积神经网络层" style="text;html=1;strokeColor=none;fillColor=none;align=center;verticalAlign=middle;whiteSpace=wrap;rounded=0;" parent="1" vertex="1">
          <mxGeometry x="765" y="767.5" width="10" height="80" as="geometry"/>
        </mxCell>
        <mxCell id="ub1XtkeqpHlctDYd5CSZ-62" value="" style="group" parent="1" vertex="1" connectable="0" treatAsSingle="0">
          <mxGeometry x="487" y="721.5" width="261" height="25" as="geometry"/>
        </mxCell>
        <mxCell id="ub1XtkeqpHlctDYd5CSZ-63" value="" style="group" parent="ub1XtkeqpHlctDYd5CSZ-62" vertex="1" connectable="0" treatAsSingle="0">
          <mxGeometry width="80" height="25" as="geometry"/>
        </mxCell>
        <mxCell id="ub1XtkeqpHlctDYd5CSZ-64" value="" style="group" parent="ub1XtkeqpHlctDYd5CSZ-63" vertex="1" connectable="0" treatAsSingle="0">
          <mxGeometry width="80" height="25" as="geometry"/>
        </mxCell>
        <mxCell id="ub1XtkeqpHlctDYd5CSZ-65" value="" style="rounded=1;whiteSpace=wrap;html=1;arcSize=50;" parent="ub1XtkeqpHlctDYd5CSZ-64" vertex="1">
          <mxGeometry width="80" height="25" as="geometry"/>
        </mxCell>
        <mxCell id="ub1XtkeqpHlctDYd5CSZ-66" value="" style="ellipse;whiteSpace=wrap;html=1;aspect=fixed;fillColor=#4D4D4D;" parent="ub1XtkeqpHlctDYd5CSZ-64" vertex="1">
          <mxGeometry x="7" y="2.5" width="20" height="20" as="geometry"/>
        </mxCell>
        <mxCell id="ub1XtkeqpHlctDYd5CSZ-67" value="" style="ellipse;whiteSpace=wrap;html=1;aspect=fixed;fillColor=#4D4D4D;" parent="ub1XtkeqpHlctDYd5CSZ-64" vertex="1">
          <mxGeometry x="31" y="2.5" width="20" height="20" as="geometry"/>
        </mxCell>
        <mxCell id="ub1XtkeqpHlctDYd5CSZ-68" value="" style="ellipse;whiteSpace=wrap;html=1;aspect=fixed;fillColor=#4D4D4D;" parent="ub1XtkeqpHlctDYd5CSZ-64" vertex="1">
          <mxGeometry x="55" y="2.5" width="20" height="20" as="geometry"/>
        </mxCell>
        <mxCell id="ub1XtkeqpHlctDYd5CSZ-69" value="" style="group" parent="ub1XtkeqpHlctDYd5CSZ-62" vertex="1" connectable="0" treatAsSingle="0">
          <mxGeometry x="91" width="80" height="25" as="geometry"/>
        </mxCell>
        <mxCell id="ub1XtkeqpHlctDYd5CSZ-70" value="" style="group" parent="ub1XtkeqpHlctDYd5CSZ-69" vertex="1" connectable="0" treatAsSingle="0">
          <mxGeometry width="80" height="25" as="geometry"/>
        </mxCell>
        <mxCell id="ub1XtkeqpHlctDYd5CSZ-71" value="" style="group" parent="ub1XtkeqpHlctDYd5CSZ-70" vertex="1" connectable="0" treatAsSingle="0">
          <mxGeometry width="80" height="25" as="geometry"/>
        </mxCell>
        <mxCell id="ub1XtkeqpHlctDYd5CSZ-72" value="" style="rounded=1;whiteSpace=wrap;html=1;arcSize=50;" parent="ub1XtkeqpHlctDYd5CSZ-71" vertex="1">
          <mxGeometry width="80" height="25" as="geometry"/>
        </mxCell>
        <mxCell id="ub1XtkeqpHlctDYd5CSZ-73" value="" style="ellipse;whiteSpace=wrap;html=1;aspect=fixed;fillColor=#4D4D4D;" parent="ub1XtkeqpHlctDYd5CSZ-71" vertex="1">
          <mxGeometry x="7" y="2.5" width="20" height="20" as="geometry"/>
        </mxCell>
        <mxCell id="ub1XtkeqpHlctDYd5CSZ-74" value="" style="ellipse;whiteSpace=wrap;html=1;aspect=fixed;fillColor=#4D4D4D;" parent="ub1XtkeqpHlctDYd5CSZ-71" vertex="1">
          <mxGeometry x="31" y="2.5" width="20" height="20" as="geometry"/>
        </mxCell>
        <mxCell id="ub1XtkeqpHlctDYd5CSZ-75" value="" style="ellipse;whiteSpace=wrap;html=1;aspect=fixed;fillColor=#4D4D4D;" parent="ub1XtkeqpHlctDYd5CSZ-71" vertex="1">
          <mxGeometry x="55" y="2.5" width="20" height="20" as="geometry"/>
        </mxCell>
        <mxCell id="ub1XtkeqpHlctDYd5CSZ-76" value="" style="group" parent="ub1XtkeqpHlctDYd5CSZ-62" vertex="1" connectable="0" treatAsSingle="0">
          <mxGeometry x="181" width="80" height="25" as="geometry"/>
        </mxCell>
        <mxCell id="ub1XtkeqpHlctDYd5CSZ-77" value="" style="group" parent="ub1XtkeqpHlctDYd5CSZ-76" vertex="1" connectable="0" treatAsSingle="0">
          <mxGeometry width="80" height="25" as="geometry"/>
        </mxCell>
        <mxCell id="ub1XtkeqpHlctDYd5CSZ-78" value="" style="group" parent="ub1XtkeqpHlctDYd5CSZ-77" vertex="1" connectable="0" treatAsSingle="0">
          <mxGeometry width="80" height="25" as="geometry"/>
        </mxCell>
        <mxCell id="ub1XtkeqpHlctDYd5CSZ-79" value="" style="rounded=1;whiteSpace=wrap;html=1;arcSize=50;" parent="ub1XtkeqpHlctDYd5CSZ-78" vertex="1">
          <mxGeometry width="80" height="25" as="geometry"/>
        </mxCell>
        <mxCell id="ub1XtkeqpHlctDYd5CSZ-80" value="" style="ellipse;whiteSpace=wrap;html=1;aspect=fixed;fillColor=#4D4D4D;" parent="ub1XtkeqpHlctDYd5CSZ-78" vertex="1">
          <mxGeometry x="7" y="2.5" width="20" height="20" as="geometry"/>
        </mxCell>
        <mxCell id="ub1XtkeqpHlctDYd5CSZ-81" value="" style="ellipse;whiteSpace=wrap;html=1;aspect=fixed;fillColor=#4D4D4D;" parent="ub1XtkeqpHlctDYd5CSZ-78" vertex="1">
          <mxGeometry x="31" y="2.5" width="20" height="20" as="geometry"/>
        </mxCell>
        <mxCell id="ub1XtkeqpHlctDYd5CSZ-82" value="" style="ellipse;whiteSpace=wrap;html=1;aspect=fixed;fillColor=#4D4D4D;" parent="ub1XtkeqpHlctDYd5CSZ-78" vertex="1">
          <mxGeometry x="55" y="2.5" width="20" height="20" as="geometry"/>
        </mxCell>
        <mxCell id="ub1XtkeqpHlctDYd5CSZ-85" value="" style="group" parent="1" vertex="1" connectable="0" treatAsSingle="0">
          <mxGeometry x="488" y="835.5" width="260" height="25" as="geometry"/>
        </mxCell>
        <mxCell id="ub1XtkeqpHlctDYd5CSZ-37" value="" style="group" parent="ub1XtkeqpHlctDYd5CSZ-85" vertex="1" connectable="0" treatAsSingle="0">
          <mxGeometry width="260" height="25" as="geometry"/>
        </mxCell>
        <mxCell id="o_JJ_BRSxDDRQvjzPQoS-154" value="" style="group" parent="ub1XtkeqpHlctDYd5CSZ-37" vertex="1" connectable="0" treatAsSingle="0">
          <mxGeometry width="80" height="25" as="geometry"/>
        </mxCell>
        <mxCell id="o_JJ_BRSxDDRQvjzPQoS-155" value="" style="rounded=1;whiteSpace=wrap;html=1;arcSize=50;" parent="o_JJ_BRSxDDRQvjzPQoS-154" vertex="1">
          <mxGeometry width="80" height="25" as="geometry"/>
        </mxCell>
        <mxCell id="ub1XtkeqpHlctDYd5CSZ-36" value="" style="group" parent="o_JJ_BRSxDDRQvjzPQoS-154" vertex="1" connectable="0" treatAsSingle="0">
          <mxGeometry x="7" y="2.5" width="68" height="20" as="geometry"/>
        </mxCell>
        <mxCell id="o_JJ_BRSxDDRQvjzPQoS-156" value="" style="ellipse;whiteSpace=wrap;html=1;aspect=fixed;fillColor=#4D4D4D;" parent="ub1XtkeqpHlctDYd5CSZ-36" vertex="1">
          <mxGeometry width="20" height="20" as="geometry"/>
        </mxCell>
        <mxCell id="o_JJ_BRSxDDRQvjzPQoS-157" value="" style="ellipse;whiteSpace=wrap;html=1;aspect=fixed;fillColor=#4D4D4D;" parent="ub1XtkeqpHlctDYd5CSZ-36" vertex="1">
          <mxGeometry x="24" width="20" height="20" as="geometry"/>
        </mxCell>
        <mxCell id="o_JJ_BRSxDDRQvjzPQoS-158" value="" style="ellipse;whiteSpace=wrap;html=1;aspect=fixed;fillColor=#4D4D4D;" parent="ub1XtkeqpHlctDYd5CSZ-36" vertex="1">
          <mxGeometry x="48" width="20" height="20" as="geometry"/>
        </mxCell>
        <mxCell id="o_JJ_BRSxDDRQvjzPQoS-164" value="" style="group" parent="ub1XtkeqpHlctDYd5CSZ-37" vertex="1" connectable="0" treatAsSingle="0">
          <mxGeometry x="90" width="80" height="25" as="geometry"/>
        </mxCell>
        <mxCell id="o_JJ_BRSxDDRQvjzPQoS-165" value="" style="rounded=1;whiteSpace=wrap;html=1;arcSize=50;" parent="o_JJ_BRSxDDRQvjzPQoS-164" vertex="1">
          <mxGeometry width="80" height="25" as="geometry"/>
        </mxCell>
        <mxCell id="o_JJ_BRSxDDRQvjzPQoS-166" value="" style="ellipse;whiteSpace=wrap;html=1;aspect=fixed;fillColor=#4D4D4D;" parent="o_JJ_BRSxDDRQvjzPQoS-164" vertex="1">
          <mxGeometry x="7" y="2.5" width="20" height="20" as="geometry"/>
        </mxCell>
        <mxCell id="o_JJ_BRSxDDRQvjzPQoS-167" value="" style="ellipse;whiteSpace=wrap;html=1;aspect=fixed;fillColor=#4D4D4D;" parent="o_JJ_BRSxDDRQvjzPQoS-164" vertex="1">
          <mxGeometry x="31" y="2.5" width="20" height="20" as="geometry"/>
        </mxCell>
        <mxCell id="o_JJ_BRSxDDRQvjzPQoS-168" value="" style="ellipse;whiteSpace=wrap;html=1;aspect=fixed;fillColor=#4D4D4D;" parent="o_JJ_BRSxDDRQvjzPQoS-164" vertex="1">
          <mxGeometry x="55" y="2.5" width="20" height="20" as="geometry"/>
        </mxCell>
        <mxCell id="o_JJ_BRSxDDRQvjzPQoS-169" value="" style="group" parent="ub1XtkeqpHlctDYd5CSZ-37" vertex="1" connectable="0" treatAsSingle="0">
          <mxGeometry x="180" width="80" height="25" as="geometry"/>
        </mxCell>
        <mxCell id="o_JJ_BRSxDDRQvjzPQoS-170" value="" style="rounded=1;whiteSpace=wrap;html=1;arcSize=50;" parent="o_JJ_BRSxDDRQvjzPQoS-169" vertex="1">
          <mxGeometry width="80" height="25" as="geometry"/>
        </mxCell>
        <mxCell id="o_JJ_BRSxDDRQvjzPQoS-171" value="" style="ellipse;whiteSpace=wrap;html=1;aspect=fixed;fillColor=#4D4D4D;" parent="o_JJ_BRSxDDRQvjzPQoS-169" vertex="1">
          <mxGeometry x="7" y="2.5" width="20" height="20" as="geometry"/>
        </mxCell>
        <mxCell id="o_JJ_BRSxDDRQvjzPQoS-172" value="" style="ellipse;whiteSpace=wrap;html=1;aspect=fixed;fillColor=#4D4D4D;" parent="o_JJ_BRSxDDRQvjzPQoS-169" vertex="1">
          <mxGeometry x="31" y="2.5" width="20" height="20" as="geometry"/>
        </mxCell>
        <mxCell id="o_JJ_BRSxDDRQvjzPQoS-173" value="" style="ellipse;whiteSpace=wrap;html=1;aspect=fixed;fillColor=#4D4D4D;" parent="o_JJ_BRSxDDRQvjzPQoS-169" vertex="1">
          <mxGeometry x="55" y="2.5" width="20" height="20" as="geometry"/>
        </mxCell>
        <mxCell id="fAfOB4aLJleQcFvKfeEl-1" style="edgeStyle=orthogonalEdgeStyle;rounded=0;orthogonalLoop=1;jettySize=auto;html=1;exitX=0.5;exitY=1;exitDx=0;exitDy=0;entryX=0.75;entryY=1;entryDx=0;entryDy=0;curved=1;strokeWidth=2;endArrow=open;endFill=0;dashed=1;dashPattern=1 1;" edge="1" parent="ub1XtkeqpHlctDYd5CSZ-37" source="o_JJ_BRSxDDRQvjzPQoS-165" target="o_JJ_BRSxDDRQvjzPQoS-155">
          <mxGeometry relative="1" as="geometry">
            <Array as="points">
              <mxPoint x="130" y="55"/>
              <mxPoint x="60" y="55"/>
            </Array>
          </mxGeometry>
        </mxCell>
        <mxCell id="ub1XtkeqpHlctDYd5CSZ-87" style="edgeStyle=orthogonalEdgeStyle;curved=1;rounded=0;orthogonalLoop=1;jettySize=auto;html=1;exitX=0.5;exitY=1;exitDx=0;exitDy=0;strokeWidth=2;endArrow=open;endFill=0;dashed=1;dashPattern=1 1;" parent="1" source="o_JJ_BRSxDDRQvjzPQoS-170" edge="1">
          <mxGeometry relative="1" as="geometry">
            <mxPoint x="527" y="861" as="targetPoint"/>
            <Array as="points">
              <mxPoint x="708" y="905"/>
              <mxPoint x="527" y="905"/>
            </Array>
          </mxGeometry>
        </mxCell>
        <mxCell id="ub1XtkeqpHlctDYd5CSZ-88" style="edgeStyle=orthogonalEdgeStyle;curved=1;rounded=0;orthogonalLoop=1;jettySize=auto;html=1;exitX=0.5;exitY=0;exitDx=0;exitDy=0;entryX=0.5;entryY=1;entryDx=0;entryDy=0;" parent="1" source="o_JJ_BRSxDDRQvjzPQoS-155" target="o_JJ_BRSxDDRQvjzPQoS-180" edge="1">
          <mxGeometry relative="1" as="geometry"/>
        </mxCell>
        <mxCell id="ub1XtkeqpHlctDYd5CSZ-89" style="edgeStyle=orthogonalEdgeStyle;curved=1;rounded=0;orthogonalLoop=1;jettySize=auto;html=1;exitX=0.5;exitY=0;exitDx=0;exitDy=0;entryX=0.5;entryY=1;entryDx=0;entryDy=0;" parent="1" source="o_JJ_BRSxDDRQvjzPQoS-165" target="o_JJ_BRSxDDRQvjzPQoS-193" edge="1">
          <mxGeometry relative="1" as="geometry"/>
        </mxCell>
        <mxCell id="o_JJ_BRSxDDRQvjzPQoS-178" value="" style="group" parent="1" vertex="1" connectable="0" treatAsSingle="0">
          <mxGeometry x="488" y="777.5" width="80" height="25" as="geometry"/>
        </mxCell>
        <mxCell id="o_JJ_BRSxDDRQvjzPQoS-179" value="" style="group" parent="o_JJ_BRSxDDRQvjzPQoS-178" vertex="1" connectable="0" treatAsSingle="0">
          <mxGeometry width="80" height="25" as="geometry"/>
        </mxCell>
        <mxCell id="o_JJ_BRSxDDRQvjzPQoS-180" value="" style="rounded=1;whiteSpace=wrap;html=1;arcSize=50;" parent="o_JJ_BRSxDDRQvjzPQoS-179" vertex="1">
          <mxGeometry width="80" height="25" as="geometry"/>
        </mxCell>
        <mxCell id="o_JJ_BRSxDDRQvjzPQoS-181" value="" style="ellipse;whiteSpace=wrap;html=1;aspect=fixed;fillColor=#4D4D4D;" parent="o_JJ_BRSxDDRQvjzPQoS-179" vertex="1">
          <mxGeometry x="7" y="2.5" width="20" height="20" as="geometry"/>
        </mxCell>
        <mxCell id="o_JJ_BRSxDDRQvjzPQoS-182" value="" style="ellipse;whiteSpace=wrap;html=1;aspect=fixed;fillColor=#4D4D4D;" parent="o_JJ_BRSxDDRQvjzPQoS-179" vertex="1">
          <mxGeometry x="31" y="2.5" width="20" height="20" as="geometry"/>
        </mxCell>
        <mxCell id="o_JJ_BRSxDDRQvjzPQoS-183" value="" style="ellipse;whiteSpace=wrap;html=1;aspect=fixed;fillColor=#4D4D4D;" parent="o_JJ_BRSxDDRQvjzPQoS-179" vertex="1">
          <mxGeometry x="55" y="2.5" width="20" height="20" as="geometry"/>
        </mxCell>
        <mxCell id="ub1XtkeqpHlctDYd5CSZ-90" value="" style="group" parent="1" vertex="1" connectable="0" treatAsSingle="0">
          <mxGeometry x="578" y="777.5" width="80" height="25" as="geometry"/>
        </mxCell>
        <mxCell id="ub1XtkeqpHlctDYd5CSZ-28" value="" style="group" parent="ub1XtkeqpHlctDYd5CSZ-90" vertex="1" connectable="0" treatAsSingle="0">
          <mxGeometry width="80" height="25" as="geometry"/>
        </mxCell>
        <mxCell id="o_JJ_BRSxDDRQvjzPQoS-191" value="" style="group" parent="ub1XtkeqpHlctDYd5CSZ-28" vertex="1" connectable="0" treatAsSingle="0">
          <mxGeometry width="80" height="25" as="geometry"/>
        </mxCell>
        <mxCell id="o_JJ_BRSxDDRQvjzPQoS-192" value="" style="group" parent="o_JJ_BRSxDDRQvjzPQoS-191" vertex="1" connectable="0" treatAsSingle="0">
          <mxGeometry width="80" height="25" as="geometry"/>
        </mxCell>
        <mxCell id="o_JJ_BRSxDDRQvjzPQoS-193" value="" style="rounded=1;whiteSpace=wrap;html=1;arcSize=50;" parent="o_JJ_BRSxDDRQvjzPQoS-192" vertex="1">
          <mxGeometry width="80" height="25" as="geometry"/>
        </mxCell>
        <mxCell id="o_JJ_BRSxDDRQvjzPQoS-194" value="" style="ellipse;whiteSpace=wrap;html=1;aspect=fixed;fillColor=#4D4D4D;" parent="o_JJ_BRSxDDRQvjzPQoS-192" vertex="1">
          <mxGeometry x="7" y="2.5" width="20" height="20" as="geometry"/>
        </mxCell>
        <mxCell id="o_JJ_BRSxDDRQvjzPQoS-195" value="" style="ellipse;whiteSpace=wrap;html=1;aspect=fixed;fillColor=#4D4D4D;" parent="o_JJ_BRSxDDRQvjzPQoS-192" vertex="1">
          <mxGeometry x="31" y="2.5" width="20" height="20" as="geometry"/>
        </mxCell>
        <mxCell id="o_JJ_BRSxDDRQvjzPQoS-196" value="" style="ellipse;whiteSpace=wrap;html=1;aspect=fixed;fillColor=#4D4D4D;" parent="o_JJ_BRSxDDRQvjzPQoS-192" vertex="1">
          <mxGeometry x="55" y="2.5" width="20" height="20" as="geometry"/>
        </mxCell>
        <mxCell id="ub1XtkeqpHlctDYd5CSZ-91" style="edgeStyle=orthogonalEdgeStyle;curved=1;rounded=0;orthogonalLoop=1;jettySize=auto;html=1;exitX=0.5;exitY=0;exitDx=0;exitDy=0;entryX=0.5;entryY=1;entryDx=0;entryDy=0;" parent="1" source="o_JJ_BRSxDDRQvjzPQoS-170" target="ub1XtkeqpHlctDYd5CSZ-32" edge="1">
          <mxGeometry relative="1" as="geometry"/>
        </mxCell>
        <mxCell id="ub1XtkeqpHlctDYd5CSZ-92" value="" style="group" parent="1" vertex="1" connectable="0" treatAsSingle="0">
          <mxGeometry x="668" y="777.5" width="80" height="25" as="geometry"/>
        </mxCell>
        <mxCell id="ub1XtkeqpHlctDYd5CSZ-29" value="" style="group" parent="ub1XtkeqpHlctDYd5CSZ-92" vertex="1" connectable="0" treatAsSingle="0">
          <mxGeometry width="80" height="25" as="geometry"/>
        </mxCell>
        <mxCell id="ub1XtkeqpHlctDYd5CSZ-30" value="" style="group" parent="ub1XtkeqpHlctDYd5CSZ-29" vertex="1" connectable="0" treatAsSingle="0">
          <mxGeometry width="80" height="25" as="geometry"/>
        </mxCell>
        <mxCell id="ub1XtkeqpHlctDYd5CSZ-31" value="" style="group" parent="ub1XtkeqpHlctDYd5CSZ-30" vertex="1" connectable="0" treatAsSingle="0">
          <mxGeometry width="80" height="25" as="geometry"/>
        </mxCell>
        <mxCell id="ub1XtkeqpHlctDYd5CSZ-32" value="" style="rounded=1;whiteSpace=wrap;html=1;arcSize=50;" parent="ub1XtkeqpHlctDYd5CSZ-31" vertex="1">
          <mxGeometry width="80" height="25" as="geometry"/>
        </mxCell>
        <mxCell id="ub1XtkeqpHlctDYd5CSZ-33" value="" style="ellipse;whiteSpace=wrap;html=1;aspect=fixed;fillColor=#4D4D4D;" parent="ub1XtkeqpHlctDYd5CSZ-31" vertex="1">
          <mxGeometry x="7" y="2.5" width="20" height="20" as="geometry"/>
        </mxCell>
        <mxCell id="ub1XtkeqpHlctDYd5CSZ-34" value="" style="ellipse;whiteSpace=wrap;html=1;aspect=fixed;fillColor=#4D4D4D;" parent="ub1XtkeqpHlctDYd5CSZ-31" vertex="1">
          <mxGeometry x="31" y="2.5" width="20" height="20" as="geometry"/>
        </mxCell>
        <mxCell id="ub1XtkeqpHlctDYd5CSZ-35" value="" style="ellipse;whiteSpace=wrap;html=1;aspect=fixed;fillColor=#4D4D4D;" parent="ub1XtkeqpHlctDYd5CSZ-31" vertex="1">
          <mxGeometry x="55" y="2.5" width="20" height="20" as="geometry"/>
        </mxCell>
        <mxCell id="ub1XtkeqpHlctDYd5CSZ-93" style="rounded=0;orthogonalLoop=1;jettySize=auto;html=1;exitX=0.5;exitY=0;exitDx=0;exitDy=0;entryX=0.5;entryY=1;entryDx=0;entryDy=0;" parent="1" source="ub1XtkeqpHlctDYd5CSZ-32" target="ub1XtkeqpHlctDYd5CSZ-65" edge="1">
          <mxGeometry relative="1" as="geometry"/>
        </mxCell>
        <mxCell id="ub1XtkeqpHlctDYd5CSZ-94" style="edgeStyle=none;rounded=0;orthogonalLoop=1;jettySize=auto;html=1;exitX=0.5;exitY=0;exitDx=0;exitDy=0;entryX=0.5;entryY=1;entryDx=0;entryDy=0;" parent="1" source="ub1XtkeqpHlctDYd5CSZ-32" target="ub1XtkeqpHlctDYd5CSZ-72" edge="1">
          <mxGeometry relative="1" as="geometry"/>
        </mxCell>
      </root>
    </mxGraphModel>
  </diagram>
</mxfile>
